<svg width="24" height="25" viewBox="0 0 24 25" fill="none" xmlns="http://www.w3.org/2000/svg">
<path d="M5.71967 9.04779C6.01256 8.7549 6.48744 8.7549 6.78033 9.04779L10.5176 12.7851C10.9224 13.1898 11.1944 13.4611 11.4208 13.6532C11.6404 13.8397 11.7671 13.9071 11.8637 13.9385C12.1148 14.0201 12.3852 14.0201 12.6363 13.9385C12.7329 13.9071 12.8596 13.8397 13.0792 13.6532C13.3056 13.4611 13.5776 13.1898 13.9824 12.7851L17.7197 9.04779C18.0126 8.7549 18.4874 8.7549 18.7803 9.04779C19.0732 9.34069 19.0732 9.81556 18.7803 10.1085L15.0215 13.8672C14.6438 14.245 14.3286 14.5602 14.05 14.7967C13.7594 15.0434 13.4598 15.2481 13.0998 15.3651C12.5475 15.5446 11.9525 15.5446 11.4002 15.3651C11.0402 15.2481 10.7406 15.0434 10.45 14.7967C10.1714 14.5602 9.85615 14.245 9.47846 13.8672L5.71967 10.1085C5.42678 9.81556 5.42678 9.34069 5.71967 9.04779Z" fill="white"/>
</svg>
