<svg width="343" height="136" viewBox="0 0 343 136" fill="none" xmlns="http://www.w3.org/2000/svg">
<g clip-path="url(#clip0_567_1746)">
<rect width="343" height="136" rx="10" fill="#935924"/>
<path d="M431.395 246.312C369.311 330.859 169.128 242.645 161.747 163.228C154.367 83.8106 247.723 80.0926 312.316 19.1549C376.908 -41.7829 314.678 -114.29 509.531 -13.9111C574.925 34.1088 493.479 161.765 431.395 246.312Z" fill="#3A1700" fill-opacity="0.1"/>
<path d="M21.4747 18.5729C21.4747 13.9968 27.6574 10.2872 35.2842 10.2872C42.911 10.2872 49.0938 13.9968 49.0938 18.5729C49.0938 23.149 42.911 23.4062 35.2842 23.4062C27.6574 23.4062 21.4747 23.149 21.4747 18.5729Z" fill="#331500" fill-opacity="0.12"/>
<path d="M-2.00112 29.3302C-2.00112 26.44 1.70852 24.0971 6.2846 24.0971C10.8607 24.0971 14.5703 26.44 14.5703 29.3302C14.5703 32.2203 10.8607 32.3828 6.2846 32.3828C1.70852 32.3828 -2.00112 32.2203 -2.00112 29.3302Z" fill="#331500" fill-opacity="0.12"/>
<path d="M32.5223 36.2364C32.5223 33.3463 36.232 31.0033 40.808 31.0033C45.3841 31.0033 49.0938 33.3463 49.0938 36.2364C49.0938 39.1266 45.3841 39.2891 40.808 39.2891C36.232 39.2891 32.5223 39.1266 32.5223 36.2364Z" fill="#331500" fill-opacity="0.12"/>
<path d="M300.475 90.5729C300.475 85.9968 306.657 82.2872 314.284 82.2872C321.911 82.2872 328.094 85.9968 328.094 90.5729C328.094 95.149 321.911 95.4062 314.284 95.4062C306.657 95.4062 300.475 95.149 300.475 90.5729Z" fill="#331500" fill-opacity="0.12"/>
<path d="M276.999 101.33C276.999 98.44 280.709 96.0971 285.285 96.0971C289.861 96.0971 293.57 98.44 293.57 101.33C293.57 104.22 289.861 104.383 285.285 104.383C280.709 104.383 276.999 104.22 276.999 101.33Z" fill="#331500" fill-opacity="0.12"/>
<path d="M311.522 108.236C311.522 105.346 315.232 103.003 319.808 103.003C324.384 103.003 328.094 105.346 328.094 108.236C328.094 111.127 324.384 111.289 319.808 111.289C315.232 111.289 311.522 111.127 311.522 108.236Z" fill="#331500" fill-opacity="0.12"/>
</g>
<defs>
<clipPath id="clip0_567_1746">
<rect width="343" height="136" rx="10" fill="white"/>
</clipPath>
</defs>
</svg>
