<svg width="343" height="77" viewBox="0 0 343 77" fill="none" xmlns="http://www.w3.org/2000/svg">
<g clip-path="url(#clip0_567_1784)">
<rect width="343" height="77" rx="10" fill="#BDD756"/>
<path d="M346.235 309.026C260.692 370.162 97.5781 223.611 115.355 145.663C133.132 67.7139 223.213 93.3336 303.77 55.468C384.328 17.6024 347.703 -70.8972 501.941 85.5758C549.228 151.74 431.778 247.889 346.235 309.026Z" fill="#3A1700" fill-opacity="0.1"/>
<path d="M8.08113 -1.32643C8.08113 -4.46101 12.3163 -7.00209 17.5406 -7.00209C22.7649 -7.00209 27 -4.46101 27 -1.32643C27 1.80815 22.7649 1.98438 17.5406 1.98438C12.3163 1.98438 8.08113 1.80815 8.08113 -1.32643Z" fill="#331500" fill-opacity="0.12"/>
<path d="M-7.99976 6.04178C-7.99976 4.06204 -5.45868 2.45715 -2.3241 2.45715C0.810482 2.45715 3.35156 4.06204 3.35156 6.04178C3.35156 8.02151 0.810482 8.13281 -2.3241 8.13281C-5.45868 8.13281 -7.99976 8.02151 -7.99976 6.04178Z" fill="#331500" fill-opacity="0.12"/>
<path d="M15.6487 10.7762C15.6487 8.79642 18.1898 7.19153 21.3243 7.19153C24.4589 7.19153 27 8.79642 27 10.7762C27 12.7559 24.4589 12.8672 21.3243 12.8672C18.1898 12.8672 15.6487 12.7559 15.6487 10.7762Z" fill="#331500" fill-opacity="0.12"/>
<path d="M331.405 3.37565C331.405 0.957547 334.673 -1.00271 338.703 -1.00271C342.733 -1.00271 346 0.957547 346 3.37565C346 5.79375 342.733 5.92969 338.703 5.92969C334.673 5.92969 331.405 5.79375 331.405 3.37565Z" fill="#331500" fill-opacity="0.12"/>
<path d="M319.001 9.0588C319.001 7.53158 320.961 6.29352 323.379 6.29352C325.798 6.29352 327.758 7.53158 327.758 9.0588C327.758 10.586 325.798 10.6719 323.379 10.6719C320.961 10.6719 319.001 10.586 319.001 9.0588Z" fill="#331500" fill-opacity="0.12"/>
<path d="M337.243 12.715C337.243 11.1878 339.204 9.94977 341.622 9.94977C344.04 9.94977 346 11.1878 346 12.715C346 14.2423 344.04 14.3281 341.622 14.3281C339.204 14.3281 337.243 14.2423 337.243 12.715Z" fill="#331500" fill-opacity="0.12"/>
</g>
<defs>
<clipPath id="clip0_567_1784">
<rect width="343" height="77" rx="10" fill="white"/>
</clipPath>
</defs>
</svg>
