<svg width="157" height="81" viewBox="0 0 157 81" fill="none" xmlns="http://www.w3.org/2000/svg">
<g clip-path="url(#clip0_567_1856)">
<rect width="157" height="81" rx="10" fill="#FFCD1D"/>
<path d="M190.732 145.314C157.1 191.115 48.6574 143.327 44.659 100.305C40.6607 57.2836 91.2338 55.2695 126.225 22.2583C161.216 -10.7528 127.504 -50.0312 233.06 4.34587C268.485 30.3592 224.364 99.5128 190.732 145.314Z" fill="#3A1700" fill-opacity="0.1"/>
<path d="M135.405 2.37565C135.405 -0.0424529 138.673 -2.00271 142.703 -2.00271C146.733 -2.00271 150 -0.0424529 150 2.37565C150 4.79375 146.733 4.92969 142.703 4.92969C138.673 4.92969 135.405 4.79375 135.405 2.37565Z" fill="#331500" fill-opacity="0.12"/>
<path d="M123.001 8.0588C123.001 6.53158 124.961 5.29352 127.379 5.29352C129.798 5.29352 131.758 6.53158 131.758 8.0588C131.758 9.58602 129.798 9.67188 127.379 9.67188C124.961 9.67188 123.001 9.58602 123.001 8.0588Z" fill="#331500" fill-opacity="0.12"/>
<path d="M141.243 11.715C141.243 10.1878 143.204 8.94977 145.622 8.94977C148.04 8.94977 150 10.1878 150 11.715C150 13.2423 148.04 13.3281 145.622 13.3281C143.204 13.3281 141.243 13.2423 141.243 11.715Z" fill="#331500" fill-opacity="0.12"/>
</g>
<defs>
<clipPath id="clip0_567_1856">
<rect width="157" height="81" rx="10" fill="white"/>
</clipPath>
</defs>
</svg>
